<?xml version="1.0" standalone="no"?>
<!DOCTYPE svg PUBLIC "-//W3C//DTD SVG 20010904//EN"
 "http://www.w3.org/TR/2001/REC-SVG-20010904/DTD/svg10.dtd">
<svg version="1.0" xmlns="http://www.w3.org/2000/svg"
 width="176.000000pt" height="176.000000pt" viewBox="0 0 176.000000 176.000000"
 preserveAspectRatio="xMidYMid meet">

<g transform="translate(0.000000,176.000000) scale(0.100000,-0.100000)"
fill="#000000" stroke="none">
<path d="M332 1030 l-41 -90 29 0 c15 0 30 7 34 15 3 10 19 15 45 15 25 0 41
-5 45 -15 5 -14 56 -22 56 -9 0 3 -17 43 -37 90 -33 75 -39 84 -63 84 -24 0
-31 -9 -68 -90z m78 21 c0 -5 3 -16 6 -25 4 -12 0 -16 -15 -16 -22 0 -25 8
-15 34 7 17 24 22 24 7z"/>
<path d="M782 1048 c7 -86 25 -108 93 -108 62 0 85 31 85 116 l0 64 -30 0
c-29 0 -29 0 -32 -67 -3 -57 -6 -68 -22 -71 -27 -5 -36 15 -36 81 l0 57 -31 0
-32 0 5 -72z"/>
<path d="M780 861 c0 -28 -2 -29 -33 -24 -29 4 -37 1 -56 -23 -17 -21 -21 -37
-17 -58 10 -48 22 -55 92 -55 l64 1 0 94 c0 94 0 94 -25 94 -21 0 -25 -5 -25
-29z m-10 -76 c15 -18 6 -45 -15 -45 -18 0 -30 24 -21 45 7 19 20 19 36 0z"/>
<path d="M310 790 l0 -90 30 0 c23 0 30 5 30 19 0 14 10 20 40 25 50 8 78 44
64 84 -12 35 -48 52 -111 52 l-53 0 0 -90z m105 20 c0 -8 -10 -16 -22 -18 -18
-3 -23 2 -23 18 0 16 5 21 23 18 12 -2 22 -10 22 -18z"/>
<path d="M1350 850 c0 -11 -4 -20 -10 -20 -5 0 -10 -9 -10 -20 0 -11 5 -20 10
-20 6 0 10 -15 10 -33 0 -42 15 -57 58 -57 27 0 33 3 28 16 -3 9 -6 18 -6 20
0 2 -7 4 -15 4 -9 0 -15 9 -15 25 0 16 6 25 15 25 8 0 15 9 15 20 0 11 -7 20
-15 20 -8 0 -15 9 -15 20 0 15 -7 20 -25 20 -18 0 -25 -5 -25 -20z"/>
<path d="M522 823 c-32 -27 -37 -64 -12 -96 17 -22 30 -27 64 -27 52 0 79 25
79 72 0 59 -83 91 -131 51z m73 -53 c0 -16 -6 -26 -18 -28 -19 -4 -32 20 -23
44 9 25 41 13 41 -16z"/>
<path d="M895 828 c-28 -16 -35 -28 -35 -65 0 -22 7 -37 22 -47 28 -20 92 -21
108 -1 19 23 2 36 -36 29 -26 -5 -35 -3 -40 11 -10 25 20 52 40 36 12 -10 20
-10 37 0 l23 12 -23 18 c-26 21 -66 24 -96 7z"/>
<path d="M1041 831 c-24 -16 -6 -38 27 -33 16 2 33 -1 36 -7 5 -7 -3 -11 -21
-11 -41 0 -66 -21 -61 -51 3 -22 7 -24 71 -26 l67 -2 0 54 c0 44 -4 57 -22 69
-25 17 -75 21 -97 7z m64 -92 c-8 -12 -35 -12 -35 0 0 11 22 20 33 14 4 -2 5
-9 2 -14z"/>
<path d="M1208 829 c-41 -24 -11 -79 41 -79 12 0 21 -5 21 -11 0 -6 -15 -9
-37 -7 -29 2 -38 -1 -41 -14 -3 -15 4 -18 43 -18 55 0 85 14 85 39 0 23 -16
36 -55 46 l-30 9 35 5 c22 4 35 12 35 21 0 18 -71 25 -97 9z"/>
</g>
</svg>
