<?xml version="1.0" standalone="no"?>
<!DOCTYPE svg PUBLIC "-//W3C//DTD SVG 20010904//EN"
 "http://www.w3.org/TR/2001/REC-SVG-20010904/DTD/svg10.dtd">
<svg version="1.0" xmlns="http://www.w3.org/2000/svg"
 width="176.000000pt" height="176.000000pt" viewBox="0 0 176.000000 176.000000"
 preserveAspectRatio="xMidYMid meet">
<metadata>
Created by potrace 1.10, written by Peter Selinger 2001-2011
</metadata>
<g transform="translate(0.000000,176.000000) scale(0.100000,-0.100000)"
fill="#000000" stroke="none">
<path d="M354 1085 c-8 -20 -25 -60 -39 -90 l-24 -55 30 0 c17 0 32 6 35 15 4
10 20 15 45 15 28 0 39 -4 39 -15 0 -10 10 -15 34 -15 l34 0 -41 90 c-38 83
-43 90 -69 90 -24 0 -32 -7 -44 -35z m56 -34 c0 -5 3 -16 6 -25 4 -12 0 -16
-16 -16 -16 0 -20 4 -16 16 3 9 6 20 6 25 0 5 5 9 10 9 6 0 10 -4 10 -9z"/>
<path d="M520 1030 l0 -90 30 0 30 0 0 90 0 90 -30 0 -30 0 0 -90z"/>
<path d="M600 1094 c0 -23 3 -26 25 -22 25 5 25 4 25 -63 l0 -69 30 0 30 0 0
71 c0 70 0 71 24 65 20 -5 25 -1 28 19 l5 25 -83 0 c-84 0 -84 0 -84 -26z"/>
<path d="M780 1056 c0 -85 25 -118 89 -120 35 -1 47 4 67 27 20 23 24 39 24
93 l0 64 -30 0 -30 0 0 -65 c0 -49 -4 -67 -15 -71 -29 -12 -45 16 -45 77 0 59
0 59 -30 59 l-30 0 0 -64z"/>
<path d="M780 861 c0 -28 -2 -29 -33 -24 -29 4 -37 1 -56 -23 -35 -44 -13
-116 35 -115 10 1 38 1 61 1 l42 0 3 95 3 95 -27 0 c-24 0 -28 -4 -28 -29z
m-5 -91 c0 -18 -6 -26 -22 -28 -18 -3 -23 1 -23 21 0 28 9 39 30 35 9 -2 15
-14 15 -28z"/>
<path d="M310 790 l0 -90 30 0 c23 0 30 5 30 19 0 14 10 20 40 25 50 8 78 44
64 84 -12 35 -48 52 -111 52 l-53 0 0 -90z m94 44 c17 -6 23 -44 7 -44 -5 0
-16 -3 -25 -6 -13 -5 -16 1 -16 25 0 31 6 36 34 25z"/>
<path d="M1350 850 c0 -11 -4 -20 -10 -20 -5 0 -10 -9 -10 -20 0 -11 5 -20 10
-20 6 0 10 -15 10 -34 0 -18 6 -38 13 -44 19 -16 51 -22 65 -13 16 9 5 41 -14
41 -8 0 -14 10 -14 25 0 16 6 25 15 25 8 0 15 9 15 20 0 11 -7 20 -15 20 -8 0
-15 9 -15 20 0 15 -7 20 -25 20 -18 0 -25 -5 -25 -20z"/>
<path d="M522 823 c-55 -47 -22 -125 51 -125 51 0 77 25 77 73 0 28 -6 42 -22
53 -30 21 -81 20 -106 -1z m73 -53 c0 -16 -6 -26 -18 -28 -19 -4 -32 20 -23
44 9 25 41 13 41 -16z"/>
<path d="M895 828 c-28 -16 -35 -28 -35 -64 0 -40 29 -66 75 -67 24 -1 42 6
57 21 24 24 23 24 -42 26 -36 1 -48 18 -30 46 8 12 13 13 30 2 16 -10 25 -10
42 -1 l22 12 -23 18 c-26 21 -66 24 -96 7z"/>
<path d="M1041 831 c-24 -16 -6 -38 27 -33 16 2 33 -1 36 -7 5 -7 -3 -11 -19
-11 -40 0 -65 -18 -65 -46 0 -25 34 -48 54 -36 5 3 26 4 48 4 l38 -2 0 55 c0
44 -4 57 -22 69 -25 17 -75 21 -97 7z m69 -86 c0 -8 -9 -15 -20 -15 -20 0 -26
11 -13 23 12 13 33 7 33 -8z"/>
<path d="M1208 829 c-41 -24 -11 -79 41 -79 12 0 21 -5 21 -11 0 -6 -15 -9
-37 -7 -29 2 -38 -1 -41 -14 -3 -15 4 -18 45 -18 55 0 87 17 82 45 -4 20 -21
31 -63 40 -35 7 -27 18 16 19 22 1 33 6 33 16 0 18 -71 25 -97 9z"/>
</g>
</svg>
